<svg version="1.0" id="Layer_1" xmlns="http://www.w3.org/2000/svg" xmlns:xlink="http://www.w3.org/1999/xlink" x="0px" y="0px" viewBox="0 0 358 232" style="enable-background:new 0 0 358 232;" xml:space="preserve">
<style type="text/css">
	.st0{fill:none;}
</style>
<g>
	<rect x="104.3" y="67" width="19.6" height="19.6"/>
	<rect x="84.7" y="86.6" width="19.6" height="19.6"/>
	<rect x="104.3" y="106.2" width="19.6" height="19.6"/>
	<rect x="84.7" y="125.8" width="19.6" height="19.6"/>
	<rect x="104.3" y="145.4" width="19.6" height="19.6"/>
	<path d="M177.5,94.5c-2.2,0-3.9,1.3-4.8,3.3l0,0v-2.9h-2.2v15.8h2.3v-8.2c0-1.6,0.3-3,1.2-4.3c0.8-1,2-1.6,3.3-1.6   c1,0,2.2,0.5,2.7,1.4c0.5,0.8,0.4,2,0.4,2.9v9.8h2.3V102c0-1.6,0-3.7-0.8-5C181,95.4,179.5,94.5,177.5,94.5z M188.1,110.6V95h-2.3   v15.8h2.3V110.6z M188.2,89.4h-2.6v2.7h2.6V89.4z M223.2,102.7c0-1.3,0.1-2.2,0.8-3.4c0.9-1.6,2.2-2.5,4-2.5h0.5v-2.3h-0.9   c-2.5,0-3.9,2-4.6,4.2l0,0V95h-2.2v15.8h2.3C223.2,110.8,223.2,102.7,223.2,102.7z M236.1,109c-1.8,0-4.4-0.8-4.7-3l-2.3,0.5   c0.8,3.3,3.8,4.4,6.9,4.4c3,0,6.5-1.3,6.5-4.8c0-1.4-0.7-2.7-1.8-3.5c-0.9-0.7-2.1-0.9-3.3-1l-2.2-0.4c-1.4-0.3-2.7-0.7-2.7-2.3   s2-2.3,3.4-2.3c1.8,0,3.4,0.8,4,2.5l2.2-0.5c-0.8-2.9-3.4-3.9-6.1-3.9c-2.9,0-5.9,1.3-5.9,4.6c0,2.7,2.2,3.9,4.6,4.4l2.6,0.5   c1.3,0.3,3,0.7,3,2.3C239.9,108.4,237.8,109,236.1,109z M247.6,110.6V95h-2.3v15.8h2.3V110.6z M247.7,89.4h-2.6v2.7h2.6V89.4z    M168.5,127h-2.7v2h2.7v13.8h2.3V129h3.7v-2h-3.7c0-2,0-3.9,2.6-3.9c0.7,0,1.3,0.1,2,0.3l0.5-2l-2.2-0.3   C170.1,120.8,168.4,123.7,168.5,127z M185.7,132.7h8.4v-2.1h-8.4v-6.8h10.6v-2.3H183v21.3h13.7v-2.3h-11V132.7z M209.3,134.7   c-0.9-0.7-2.1-0.9-3.3-1l-2.2-0.4c-1.4-0.3-2.7-0.7-2.7-2.3c0-1.7,2-2.3,3.3-2.3c1.8,0,3.4,0.8,4,2.5l2.2-0.5   c-0.8-2.9-3.4-3.9-6.1-3.9c-2.9,0-5.9,1.3-5.9,4.6c0,2.7,2.2,3.9,4.6,4.3l2.6,0.5c1.3,0.3,3,0.7,3,2.3c0,2-2.1,2.6-3.8,2.6   c-1.8,0-4.4-0.8-4.7-3l-2.3,0.5c0.8,3.3,3.8,4.4,6.9,4.4c3,0,6.5-1.3,6.5-4.8C211.2,136.8,210.7,135.5,209.3,134.7z M224.4,134.7   c-0.9-0.7-2.1-0.9-3.3-1l-2.2-0.4c-1.4-0.3-2.7-0.7-2.7-2.3c0-1.7,2-2.3,3.4-2.3c1.8,0,3.4,0.8,4,2.5l2.2-0.5   c-0.8-2.9-3.4-3.9-6.1-3.9c-2.9,0-5.9,1.3-5.9,4.6c0,2.7,2.2,3.9,4.6,4.3l2.6,0.5c1.3,0.3,3,0.7,3,2.3c0,2-2.1,2.6-3.8,2.6   c-1.8,0-4.4-0.8-4.7-3l-2.3,0.5c0.8,3.3,3.8,4.4,6.9,4.4c3,0,6.5-1.3,6.5-4.8C226.3,136.8,225.7,135.5,224.4,134.7z M234.9,126.6   c-4.7,0-7.3,3.9-7.3,8.4c0,4.4,2.5,8.2,7.2,8.2c3,0,5.7-1.7,6.7-4.6l-2.3-0.5c-0.7,1.8-2.2,3-4.2,3c-1.7,0-3.3-0.9-4-2.3   c-0.5-1.2-0.7-2.3-0.7-3.5h11.4C242,130.8,239.9,126.6,234.9,126.6z M230.5,133.2c0.1-2.5,1.8-4.8,4.4-4.8c2.7,0,4.2,2.2,4.2,4.8   H230.5z M218,106.3l-2.3-0.5c-0.7,1.8-2.2,3-4.2,3c-1.7,0-3.3-0.9-4-2.3c-0.5-1.2-0.7-2.3-0.7-3.5h11.4c0.1-4.4-2-8.5-6.9-8.5   c-4.7,0-7.3,3.9-7.3,8.4c0,4.4,2.5,8.2,7.2,8.2C214.3,111,217.1,109.3,218,106.3z M211.4,96.4c2.7,0,4.2,2.2,4.2,4.8H207   C207,98.8,208.7,96.4,211.4,96.4z M158.3,126.6c-4.7,0-7.2,3.8-7.2,8.1c0,4.2,2.1,8.4,6.8,8.4s7.3-3.9,7.3-8.2   C165.2,130.6,162.9,126.6,158.3,126.6z M161.7,138.8c-0.8,1.4-2,2.2-3.7,2.2c-1.4,0-2.7-0.8-3.4-2c-0.7-1.3-0.9-2.9-0.9-4.3   c0-1.3,0.1-2.7,0.8-3.9c0.7-1.3,2.1-2.2,3.5-2.2c1.3,0,2.6,0.7,3.4,1.8c0.8,1.3,1,2.9,1,4.3C162.5,136.1,162.4,137.5,161.7,138.8z    M167.6,89.4H165v13.4c0,1.3,0,3-0.9,4.2c-0.9,1.2-3.1,1.6-4.7,1.7c-1.6,0-3.4-0.4-4.3-1.7c-0.9-1.2-0.9-2.9-0.9-4.2V89.4h-3v13.4   c0,2.2,0.1,4.3,1.8,6.1c1.6,1.6,4,2.1,6.3,2.1l0,0c2.3,0,4.7-0.4,6.3-2.1c1.7-1.7,1.8-3.9,1.8-6.1V89.4H167.6z M255,127.1   L255,127.1l-2.5-0.1l0,0l-3.4,5.4l-3.3-5.4H243l4.7,7.6l-5.2,8.2l-0.1,0.1h2.5l0,0l4-6.4l3.9,6.4h2.9l-5.4-8.7L255,127.1z    M198.1,110.8l5.4-15.8v-0.1h-2.3l0,0l-4.3,12.8l-4.3-12.8h-2.7l5.6,15.8L198.1,110.8z M271.1,94.9L271.1,94.9l-4.3,11.9L262.6,95   h-7.4v-5.7l-2.3,0.3V95h-2.7v2h2.7v8.7c0,3.1,1,5.1,4.4,5.1l2.3-0.1v-2l-1.8,0.1c-2,0-2.5-0.9-2.5-2.7V97h5.6l0,0l4.7,13.6   l-0.1,0.5c-0.5,1.7-1.2,3.3-3.3,3.3c-0.5,0-1-0.1-1.6-0.3h-0.1v2.1l0,0c0.5,0.1,1.2,0.3,1.8,0.3c1.4,0,2.2-0.1,3.3-1.2   c0.9-0.9,1.2-1.8,1.6-3l6.1-17.2V95C273.3,94.9,271.1,94.9,271.1,94.9z"/>
</g>
<rect x="79" y="16" class="st0" width="200" height="200"/>
</svg>